<mxfile host="app.diagrams.net" modified="2024-01-30T08:09:38.367Z" agent="Mozilla/5.0 (Windows NT 10.0; Win64; x64) AppleWebKit/537.36 (KHTML, like Gecko) Chrome/121.0.0.0 Safari/537.36" etag="3JcRa_GGpY1_8fYsCPtv" version="23.0.2" type="google">
  <diagram name="PÃ¡gina-1" id="Cx-z2yO7WmjjUm5L6ls4">
    <mxGraphModel grid="1" page="1" gridSize="10" guides="1" tooltips="1" connect="1" arrows="1" fold="1" pageScale="1" pageWidth="827" pageHeight="1169" math="0" shadow="0">
      <root>
        <mxCell id="0" />
        <mxCell id="1" parent="0" />
        <mxCell id="iCEelQpR8W68b0SyWvai-10" style="edgeStyle=orthogonalEdgeStyle;rounded=0;orthogonalLoop=1;jettySize=auto;html=1;exitX=0.5;exitY=0;exitDx=0;exitDy=0;endArrow=oval;endFill=1;strokeWidth=1;" edge="1" parent="1" source="iCEelQpR8W68b0SyWvai-1">
          <mxGeometry relative="1" as="geometry">
            <mxPoint x="430" y="80" as="targetPoint" />
          </mxGeometry>
        </mxCell>
        <mxCell id="iCEelQpR8W68b0SyWvai-11" style="edgeStyle=orthogonalEdgeStyle;rounded=0;orthogonalLoop=1;jettySize=auto;html=1;exitX=0.75;exitY=0;exitDx=0;exitDy=0;endArrow=oval;endFill=0;" edge="1" parent="1" source="iCEelQpR8W68b0SyWvai-1">
          <mxGeometry relative="1" as="geometry">
            <mxPoint x="475" y="80" as="targetPoint" />
          </mxGeometry>
        </mxCell>
        <mxCell id="iCEelQpR8W68b0SyWvai-1" value="Zinema" style="rounded=0;whiteSpace=wrap;html=1;" vertex="1" parent="1">
          <mxGeometry x="340" y="120" width="180" height="60" as="geometry" />
        </mxCell>
        <mxCell id="iCEelQpR8W68b0SyWvai-2" value="" style="endArrow=classic;html=1;rounded=0;entryX=-0.006;entryY=0.633;entryDx=0;entryDy=0;exitX=1;exitY=0.5;exitDx=0;exitDy=0;entryPerimeter=0;endFill=1;" edge="1" parent="1" source="iCEelQpR8W68b0SyWvai-4" target="iCEelQpR8W68b0SyWvai-1">
          <mxGeometry width="50" height="50" relative="1" as="geometry">
            <mxPoint x="180" y="140" as="sourcePoint" />
            <mxPoint x="440" y="380" as="targetPoint" />
          </mxGeometry>
        </mxCell>
        <mxCell id="iCEelQpR8W68b0SyWvai-18" style="edgeStyle=orthogonalEdgeStyle;rounded=0;orthogonalLoop=1;jettySize=auto;html=1;exitX=0.25;exitY=0;exitDx=0;exitDy=0;endArrow=oval;endFill=0;" edge="1" parent="1" source="iCEelQpR8W68b0SyWvai-3">
          <mxGeometry relative="1" as="geometry">
            <mxPoint x="-142" y="360" as="targetPoint" />
            <mxPoint x="-142" y="400" as="sourcePoint" />
          </mxGeometry>
        </mxCell>
        <mxCell id="iCEelQpR8W68b0SyWvai-20" style="edgeStyle=orthogonalEdgeStyle;rounded=0;orthogonalLoop=1;jettySize=auto;html=1;exitX=1;exitY=0;exitDx=0;exitDy=0;endArrow=oval;endFill=0;" edge="1" parent="1" source="iCEelQpR8W68b0SyWvai-3">
          <mxGeometry relative="1" as="geometry">
            <mxPoint x="-7" y="359" as="targetPoint" />
          </mxGeometry>
        </mxCell>
        <mxCell id="iCEelQpR8W68b0SyWvai-38" style="edgeStyle=orthogonalEdgeStyle;rounded=0;orthogonalLoop=1;jettySize=auto;html=1;exitX=1;exitY=0.5;exitDx=0;exitDy=0;endArrow=none;endFill=0;" edge="1" parent="1" source="iCEelQpR8W68b0SyWvai-3">
          <mxGeometry relative="1" as="geometry">
            <mxPoint x="130" y="439" as="targetPoint" />
          </mxGeometry>
        </mxCell>
        <mxCell id="iCEelQpR8W68b0SyWvai-3" value="Aretoa" style="rounded=0;whiteSpace=wrap;html=1;" vertex="1" parent="1">
          <mxGeometry x="-187" y="409" width="180" height="60" as="geometry" />
        </mxCell>
        <mxCell id="iCEelQpR8W68b0SyWvai-4" value="eduki" style="rhombus;whiteSpace=wrap;html=1;" vertex="1" parent="1">
          <mxGeometry x="-127" y="119" width="80" height="80" as="geometry" />
        </mxCell>
        <mxCell id="iCEelQpR8W68b0SyWvai-6" value="" style="endArrow=none;html=1;rounded=0;entryX=0.5;entryY=1;entryDx=0;entryDy=0;exitX=0.556;exitY=-0.017;exitDx=0;exitDy=0;exitPerimeter=0;endFill=0;startArrow=classic;startFill=1;" edge="1" parent="1" source="iCEelQpR8W68b0SyWvai-3" target="iCEelQpR8W68b0SyWvai-4">
          <mxGeometry width="50" height="50" relative="1" as="geometry">
            <mxPoint x="-87" y="269" as="sourcePoint" />
            <mxPoint x="173" y="349" as="targetPoint" />
          </mxGeometry>
        </mxCell>
        <mxCell id="iCEelQpR8W68b0SyWvai-12" value="zinema_id" style="text;html=1;align=center;verticalAlign=middle;resizable=0;points=[];autosize=1;strokeColor=none;fillColor=none;rotation=-88;" vertex="1" parent="1">
          <mxGeometry x="390" y="30" width="80" height="30" as="geometry" />
        </mxCell>
        <mxCell id="iCEelQpR8W68b0SyWvai-13" value="lokalizazioa" style="text;html=1;align=center;verticalAlign=middle;resizable=0;points=[];autosize=1;strokeColor=none;fillColor=none;rotation=-90;" vertex="1" parent="1">
          <mxGeometry x="430" y="20" width="90" height="30" as="geometry" />
        </mxCell>
        <mxCell id="iCEelQpR8W68b0SyWvai-14" style="edgeStyle=orthogonalEdgeStyle;rounded=0;orthogonalLoop=1;jettySize=auto;html=1;exitX=0.75;exitY=0;exitDx=0;exitDy=0;endArrow=oval;endFill=0;" edge="1" parent="1">
          <mxGeometry relative="1" as="geometry">
            <mxPoint x="385" y="81" as="targetPoint" />
            <mxPoint x="385" y="121" as="sourcePoint" />
            <Array as="points">
              <mxPoint x="385" y="101" />
              <mxPoint x="386" y="101" />
              <mxPoint x="386" y="102" />
              <mxPoint x="385" y="102" />
            </Array>
          </mxGeometry>
        </mxCell>
        <mxCell id="iCEelQpR8W68b0SyWvai-15" value="izena" style="text;html=1;align=center;verticalAlign=middle;resizable=0;points=[];autosize=1;strokeColor=none;fillColor=none;rotation=-90;" vertex="1" parent="1">
          <mxGeometry x="360" y="40" width="50" height="30" as="geometry" />
        </mxCell>
        <mxCell id="iCEelQpR8W68b0SyWvai-19" value="izena" style="text;html=1;align=center;verticalAlign=middle;resizable=0;points=[];autosize=1;strokeColor=none;fillColor=none;rotation=-90;" vertex="1" parent="1">
          <mxGeometry x="-167" y="314" width="50" height="30" as="geometry" />
        </mxCell>
        <mxCell id="iCEelQpR8W68b0SyWvai-21" value="Eserlekua" style="text;html=1;align=center;verticalAlign=middle;resizable=0;points=[];autosize=1;strokeColor=none;fillColor=none;rotation=-90;" vertex="1" parent="1">
          <mxGeometry x="-47" y="305" width="80" height="30" as="geometry" />
        </mxCell>
        <mxCell id="iCEelQpR8W68b0SyWvai-24" value="" style="edgeStyle=orthogonalEdgeStyle;rounded=0;orthogonalLoop=1;jettySize=auto;html=1;exitX=0.75;exitY=0;exitDx=0;exitDy=0;endArrow=oval;endFill=1;" edge="1" parent="1" source="iCEelQpR8W68b0SyWvai-3">
          <mxGeometry relative="1" as="geometry">
            <mxPoint x="-52" y="359" as="targetPoint" />
            <mxPoint x="-52" y="269" as="sourcePoint" />
          </mxGeometry>
        </mxCell>
        <mxCell id="iCEelQpR8W68b0SyWvai-17" value="areto_id" style="text;html=1;align=center;verticalAlign=middle;resizable=0;points=[];autosize=1;strokeColor=none;fillColor=none;rotation=-90;" vertex="1" parent="1">
          <mxGeometry x="-87" y="309" width="70" height="30" as="geometry" />
        </mxCell>
        <mxCell id="iCEelQpR8W68b0SyWvai-25" value="" style="endArrow=none;html=1;rounded=0;entryX=0.5;entryY=1;entryDx=0;entryDy=0;" edge="1" parent="1" target="iCEelQpR8W68b0SyWvai-1">
          <mxGeometry width="50" height="50" relative="1" as="geometry">
            <mxPoint x="430" y="250" as="sourcePoint" />
            <mxPoint x="440" y="320" as="targetPoint" />
          </mxGeometry>
        </mxCell>
        <mxCell id="iCEelQpR8W68b0SyWvai-27" style="edgeStyle=orthogonalEdgeStyle;rounded=0;orthogonalLoop=1;jettySize=auto;html=1;exitX=0.5;exitY=1;exitDx=0;exitDy=0;endArrow=none;endFill=0;" edge="1" parent="1" source="iCEelQpR8W68b0SyWvai-26">
          <mxGeometry relative="1" as="geometry">
            <mxPoint x="431" y="390" as="targetPoint" />
            <Array as="points">
              <mxPoint x="430" y="355" />
              <mxPoint x="431" y="355" />
              <mxPoint x="431" y="399" />
            </Array>
          </mxGeometry>
        </mxCell>
        <mxCell id="iCEelQpR8W68b0SyWvai-26" value="" style="rhombus;whiteSpace=wrap;html=1;" vertex="1" parent="1">
          <mxGeometry x="390" y="225" width="80" height="80" as="geometry" />
        </mxCell>
        <mxCell id="iCEelQpR8W68b0SyWvai-29" style="edgeStyle=orthogonalEdgeStyle;rounded=0;orthogonalLoop=1;jettySize=auto;html=1;exitX=0.75;exitY=0;exitDx=0;exitDy=0;endArrow=oval;endFill=1;" edge="1" parent="1" source="iCEelQpR8W68b0SyWvai-28">
          <mxGeometry relative="1" as="geometry">
            <mxPoint x="468" y="370" as="targetPoint" />
          </mxGeometry>
        </mxCell>
        <mxCell id="iCEelQpR8W68b0SyWvai-30" style="edgeStyle=orthogonalEdgeStyle;rounded=0;orthogonalLoop=1;jettySize=auto;html=1;exitX=0.25;exitY=0;exitDx=0;exitDy=0;endArrow=oval;endFill=0;" edge="1" parent="1" source="iCEelQpR8W68b0SyWvai-28">
          <mxGeometry relative="1" as="geometry">
            <mxPoint x="383" y="370" as="targetPoint" />
          </mxGeometry>
        </mxCell>
        <mxCell id="iCEelQpR8W68b0SyWvai-31" style="edgeStyle=orthogonalEdgeStyle;rounded=0;orthogonalLoop=1;jettySize=auto;html=1;exitX=1;exitY=0;exitDx=0;exitDy=0;endArrow=oval;endFill=0;" edge="1" parent="1" source="iCEelQpR8W68b0SyWvai-28">
          <mxGeometry relative="1" as="geometry">
            <mxPoint x="510" y="370" as="targetPoint" />
          </mxGeometry>
        </mxCell>
        <mxCell id="iCEelQpR8W68b0SyWvai-42" style="edgeStyle=orthogonalEdgeStyle;rounded=0;orthogonalLoop=1;jettySize=auto;html=1;exitX=1;exitY=0.5;exitDx=0;exitDy=0;endArrow=none;endFill=0;startArrow=classic;startFill=1;" edge="1" parent="1" source="iCEelQpR8W68b0SyWvai-28">
          <mxGeometry relative="1" as="geometry">
            <mxPoint x="720" y="434" as="targetPoint" />
          </mxGeometry>
        </mxCell>
        <mxCell id="iCEelQpR8W68b0SyWvai-28" value="Sarrera" style="rounded=0;whiteSpace=wrap;html=1;" vertex="1" parent="1">
          <mxGeometry x="340" y="399" width="170" height="70" as="geometry" />
        </mxCell>
        <mxCell id="iCEelQpR8W68b0SyWvai-32" value="Sarrera-id" style="text;html=1;align=center;verticalAlign=middle;resizable=0;points=[];autosize=1;strokeColor=none;fillColor=none;rotation=-90;" vertex="1" parent="1">
          <mxGeometry x="430" y="319" width="80" height="30" as="geometry" />
        </mxCell>
        <mxCell id="iCEelQpR8W68b0SyWvai-33" value="datak" style="text;html=1;align=center;verticalAlign=middle;resizable=0;points=[];autosize=1;strokeColor=none;fillColor=none;rotation=-90;" vertex="1" parent="1">
          <mxGeometry x="485" y="326" width="50" height="30" as="geometry" />
        </mxCell>
        <mxCell id="iCEelQpR8W68b0SyWvai-34" value="ordutegia" style="text;html=1;align=center;verticalAlign=middle;resizable=0;points=[];autosize=1;strokeColor=none;fillColor=none;rotation=-90;" vertex="1" parent="1">
          <mxGeometry x="349" y="319" width="70" height="30" as="geometry" />
        </mxCell>
        <mxCell id="_75wZV00d6pTDZspQu4P-1" value="Saldu" style="text;html=1;strokeColor=none;fillColor=none;align=center;verticalAlign=middle;whiteSpace=wrap;rounded=0;fontSize=16;" vertex="1" parent="1">
          <mxGeometry x="405" y="255" width="50" height="20" as="geometry" />
        </mxCell>
        <mxCell id="iCEelQpR8W68b0SyWvai-39" value="erakutsi" style="rhombus;whiteSpace=wrap;html=1;" vertex="1" parent="1">
          <mxGeometry x="130" y="399" width="80" height="80" as="geometry" />
        </mxCell>
        <mxCell id="iCEelQpR8W68b0SyWvai-41" style="edgeStyle=orthogonalEdgeStyle;rounded=0;orthogonalLoop=1;jettySize=auto;html=1;exitX=1;exitY=0.5;exitDx=0;exitDy=0;endArrow=none;endFill=0;" edge="1" parent="1" source="iCEelQpR8W68b0SyWvai-39">
          <mxGeometry relative="1" as="geometry">
            <mxPoint x="340" y="439" as="targetPoint" />
          </mxGeometry>
        </mxCell>
        <mxCell id="iCEelQpR8W68b0SyWvai-43" value="erakutsi" style="rhombus;whiteSpace=wrap;html=1;" vertex="1" parent="1">
          <mxGeometry x="720" y="394" width="80" height="80" as="geometry" />
        </mxCell>
        <mxCell id="ZefZ5wgN9eoWKqnJJMVi-10" style="edgeStyle=orthogonalEdgeStyle;rounded=0;orthogonalLoop=1;jettySize=auto;html=1;exitX=1;exitY=0.5;exitDx=0;exitDy=0;entryX=1;entryY=0.5;entryDx=0;entryDy=0;endArrow=none;endFill=0;" edge="1" parent="1" source="iCEelQpR8W68b0SyWvai-45" target="C2vpB9DQUcM9V20TogkW-36">
          <mxGeometry relative="1" as="geometry">
            <Array as="points">
              <mxPoint x="1070" y="430" />
              <mxPoint x="1160" y="430" />
              <mxPoint x="1160" y="-80" />
            </Array>
            <mxPoint x="1070" y="478.00000000000045" as="sourcePoint" />
            <mxPoint x="660" y="895" as="targetPoint" />
          </mxGeometry>
        </mxCell>
        <mxCell id="ZefZ5wgN9eoWKqnJJMVi-11" style="edgeStyle=orthogonalEdgeStyle;rounded=0;orthogonalLoop=1;jettySize=auto;html=1;exitX=0.5;exitY=1;exitDx=0;exitDy=0;endArrow=none;endFill=0;startArrow=classic;startFill=1;" edge="1" parent="1" source="iCEelQpR8W68b0SyWvai-45" target="ZefZ5wgN9eoWKqnJJMVi-12">
          <mxGeometry relative="1" as="geometry">
            <mxPoint x="995" y="540" as="targetPoint" />
          </mxGeometry>
        </mxCell>
        <mxCell id="ZefZ5wgN9eoWKqnJJMVi-20" style="edgeStyle=orthogonalEdgeStyle;rounded=0;orthogonalLoop=1;jettySize=auto;html=1;exitX=0.25;exitY=0;exitDx=0;exitDy=0;endArrow=oval;endFill=1;" edge="1" parent="1" source="iCEelQpR8W68b0SyWvai-45">
          <mxGeometry relative="1" as="geometry">
            <mxPoint x="957" y="360" as="targetPoint" />
          </mxGeometry>
        </mxCell>
        <mxCell id="ZefZ5wgN9eoWKqnJJMVi-21" style="edgeStyle=orthogonalEdgeStyle;rounded=0;orthogonalLoop=1;jettySize=auto;html=1;exitX=0.75;exitY=0;exitDx=0;exitDy=0;endArrow=oval;endFill=0;" edge="1" parent="1" source="iCEelQpR8W68b0SyWvai-45">
          <mxGeometry relative="1" as="geometry">
            <mxPoint x="1032" y="360" as="targetPoint" />
          </mxGeometry>
        </mxCell>
        <mxCell id="ZefZ5wgN9eoWKqnJJMVi-22" style="edgeStyle=orthogonalEdgeStyle;rounded=0;orthogonalLoop=1;jettySize=auto;html=1;exitX=1;exitY=0;exitDx=0;exitDy=0;endArrow=oval;endFill=0;" edge="1" parent="1" source="iCEelQpR8W68b0SyWvai-45">
          <mxGeometry relative="1" as="geometry">
            <mxPoint x="1070" y="360" as="targetPoint" />
          </mxGeometry>
        </mxCell>
        <mxCell id="ZefZ5wgN9eoWKqnJJMVi-23" style="edgeStyle=orthogonalEdgeStyle;rounded=0;orthogonalLoop=1;jettySize=auto;html=1;exitX=0;exitY=0;exitDx=0;exitDy=0;endArrow=oval;endFill=0;" edge="1" parent="1" source="iCEelQpR8W68b0SyWvai-45">
          <mxGeometry relative="1" as="geometry">
            <mxPoint x="919.666666666667" y="360" as="targetPoint" />
          </mxGeometry>
        </mxCell>
        <mxCell id="iCEelQpR8W68b0SyWvai-45" value="Filma" style="rounded=0;whiteSpace=wrap;html=1;" vertex="1" parent="1">
          <mxGeometry x="920" y="394" width="150" height="64" as="geometry" />
        </mxCell>
        <mxCell id="iCEelQpR8W68b0SyWvai-50" value="" style="endArrow=none;html=1;rounded=0;entryX=0;entryY=0.5;entryDx=0;entryDy=0;exitX=0;exitY=0.5;exitDx=0;exitDy=0;" edge="1" parent="1" source="C2vpB9DQUcM9V20TogkW-36" target="iCEelQpR8W68b0SyWvai-3">
          <mxGeometry width="50" height="50" relative="1" as="geometry">
            <mxPoint x="580" y="893" as="sourcePoint" />
            <mxPoint x="-97" y="490" as="targetPoint" />
            <Array as="points">
              <mxPoint x="-300" y="-80" />
              <mxPoint x="-300" y="440" />
            </Array>
          </mxGeometry>
        </mxCell>
        <mxCell id="iCEelQpR8W68b0SyWvai-52" value="" style="endArrow=none;html=1;rounded=0;entryX=0.5;entryY=1;entryDx=0;entryDy=0;endFill=0;startArrow=classic;startFill=1;" edge="1" parent="1" target="iCEelQpR8W68b0SyWvai-53">
          <mxGeometry width="50" height="50" relative="1" as="geometry">
            <mxPoint x="995" y="390" as="sourcePoint" />
            <mxPoint x="1000" y="210" as="targetPoint" />
            <Array as="points" />
          </mxGeometry>
        </mxCell>
        <mxCell id="iCEelQpR8W68b0SyWvai-54" style="edgeStyle=orthogonalEdgeStyle;rounded=0;orthogonalLoop=1;jettySize=auto;html=1;exitX=0;exitY=0.5;exitDx=0;exitDy=0;entryX=1;entryY=0.667;entryDx=0;entryDy=0;entryPerimeter=0;endArrow=classic;endFill=1;" edge="1" parent="1" source="iCEelQpR8W68b0SyWvai-53" target="iCEelQpR8W68b0SyWvai-1">
          <mxGeometry relative="1" as="geometry" />
        </mxCell>
        <mxCell id="iCEelQpR8W68b0SyWvai-53" value="ikusi" style="rhombus;whiteSpace=wrap;html=1;" vertex="1" parent="1">
          <mxGeometry x="955" y="120" width="80" height="80" as="geometry" />
        </mxCell>
        <mxCell id="ZefZ5wgN9eoWKqnJJMVi-4" value="Bezeroa" style="rounded=0;whiteSpace=wrap;html=1;" vertex="1" parent="1">
          <mxGeometry x="90" y="687" width="170" height="80" as="geometry" />
        </mxCell>
        <mxCell id="ZefZ5wgN9eoWKqnJJMVi-7" value="" style="endArrow=none;html=1;rounded=0;entryX=0.465;entryY=0;entryDx=0;entryDy=0;exitX=0.5;exitY=1;exitDx=0;exitDy=0;entryPerimeter=0;endFill=0;" edge="1" parent="1" source="ZefZ5wgN9eoWKqnJJMVi-9" target="ZefZ5wgN9eoWKqnJJMVi-4">
          <mxGeometry width="50" height="50" relative="1" as="geometry">
            <mxPoint x="175" y="617" as="sourcePoint" />
            <mxPoint x="235" y="517" as="targetPoint" />
          </mxGeometry>
        </mxCell>
        <mxCell id="ZefZ5wgN9eoWKqnJJMVi-9" value="erosi" style="rhombus;whiteSpace=wrap;html=1;" vertex="1" parent="1">
          <mxGeometry x="130" y="552" width="80" height="80" as="geometry" />
        </mxCell>
        <mxCell id="C2vpB9DQUcM9V20TogkW-6" value="" style="endArrow=none;html=1;rounded=0;fontSize=12;startSize=8;endSize=8;curved=1;" edge="1" parent="1">
          <mxGeometry width="50" height="50" relative="1" as="geometry">
            <mxPoint x="209" y="591.5" as="sourcePoint" />
            <mxPoint x="349" y="591.5" as="targetPoint" />
          </mxGeometry>
        </mxCell>
        <mxCell id="ZefZ5wgN9eoWKqnJJMVi-12" value="&amp;nbsp;eduki" style="rhombus;whiteSpace=wrap;html=1;" vertex="1" parent="1">
          <mxGeometry x="955" y="585" width="80" height="80" as="geometry" />
        </mxCell>
        <mxCell id="ZefZ5wgN9eoWKqnJJMVi-13" value="" style="endArrow=none;html=1;rounded=0;entryX=0;entryY=0.5;entryDx=0;entryDy=0;startArrow=classic;startFill=1;" edge="1" parent="1" target="ZefZ5wgN9eoWKqnJJMVi-12">
          <mxGeometry width="50" height="50" relative="1" as="geometry">
            <mxPoint x="750" y="625" as="sourcePoint" />
            <mxPoint x="870" y="610" as="targetPoint" />
          </mxGeometry>
        </mxCell>
        <mxCell id="ZefZ5wgN9eoWKqnJJMVi-28" style="edgeStyle=orthogonalEdgeStyle;rounded=0;orthogonalLoop=1;jettySize=auto;html=1;exitX=0.5;exitY=1;exitDx=0;exitDy=0;endArrow=none;endFill=0;startArrow=classic;startFill=1;" edge="1" parent="1" source="ZefZ5wgN9eoWKqnJJMVi-15" target="ZefZ5wgN9eoWKqnJJMVi-29">
          <mxGeometry relative="1" as="geometry">
            <mxPoint x="230" y="1011.6666666666666" as="targetPoint" />
            <Array as="points">
              <mxPoint x="690" y="1010" />
            </Array>
          </mxGeometry>
        </mxCell>
        <mxCell id="ZefZ5wgN9eoWKqnJJMVi-35" style="edgeStyle=orthogonalEdgeStyle;rounded=0;orthogonalLoop=1;jettySize=auto;html=1;exitX=0.25;exitY=0;exitDx=0;exitDy=0;endArrow=oval;endFill=1;" edge="1" parent="1" source="ZefZ5wgN9eoWKqnJJMVi-15">
          <mxGeometry relative="1" as="geometry">
            <mxPoint x="659.666666666667" y="560" as="targetPoint" />
          </mxGeometry>
        </mxCell>
        <mxCell id="ZefZ5wgN9eoWKqnJJMVi-36" style="edgeStyle=orthogonalEdgeStyle;rounded=0;orthogonalLoop=1;jettySize=auto;html=1;exitX=0.5;exitY=0;exitDx=0;exitDy=0;endArrow=oval;endFill=0;" edge="1" parent="1" source="ZefZ5wgN9eoWKqnJJMVi-15">
          <mxGeometry relative="1" as="geometry">
            <mxPoint x="689.666666666667" y="560" as="targetPoint" />
          </mxGeometry>
        </mxCell>
        <mxCell id="ZefZ5wgN9eoWKqnJJMVi-37" style="edgeStyle=orthogonalEdgeStyle;rounded=0;orthogonalLoop=1;jettySize=auto;html=1;exitX=0.75;exitY=0;exitDx=0;exitDy=0;endArrow=oval;endFill=0;" edge="1" parent="1" source="ZefZ5wgN9eoWKqnJJMVi-15">
          <mxGeometry relative="1" as="geometry">
            <mxPoint x="719.666666666667" y="560" as="targetPoint" />
          </mxGeometry>
        </mxCell>
        <mxCell id="ZefZ5wgN9eoWKqnJJMVi-15" value="Saioa" style="rounded=0;whiteSpace=wrap;html=1;" vertex="1" parent="1">
          <mxGeometry x="630" y="595" width="120" height="60" as="geometry" />
        </mxCell>
        <mxCell id="ZefZ5wgN9eoWKqnJJMVi-16" value="erakutsi" style="rhombus;whiteSpace=wrap;html=1;" vertex="1" parent="1">
          <mxGeometry x="440" y="585" width="80" height="80" as="geometry" />
        </mxCell>
        <mxCell id="ZefZ5wgN9eoWKqnJJMVi-17" value="" style="endArrow=none;html=1;rounded=0;entryX=1;entryY=0.5;entryDx=0;entryDy=0;exitX=0;exitY=0.5;exitDx=0;exitDy=0;" edge="1" parent="1" source="ZefZ5wgN9eoWKqnJJMVi-15" target="ZefZ5wgN9eoWKqnJJMVi-16">
          <mxGeometry width="50" height="50" relative="1" as="geometry">
            <mxPoint x="660" y="740" as="sourcePoint" />
            <mxPoint x="710" y="720" as="targetPoint" />
          </mxGeometry>
        </mxCell>
        <mxCell id="ZefZ5wgN9eoWKqnJJMVi-18" value="" style="endArrow=classic;html=1;rounded=0;entryX=0.822;entryY=0.99;entryDx=0;entryDy=0;entryPerimeter=0;exitX=0.5;exitY=0;exitDx=0;exitDy=0;endFill=1;" edge="1" parent="1" source="ZefZ5wgN9eoWKqnJJMVi-16" target="iCEelQpR8W68b0SyWvai-28">
          <mxGeometry width="50" height="50" relative="1" as="geometry">
            <mxPoint x="480" y="580" as="sourcePoint" />
            <mxPoint x="560" y="610" as="targetPoint" />
          </mxGeometry>
        </mxCell>
        <mxCell id="ZefZ5wgN9eoWKqnJJMVi-19" style="edgeStyle=orthogonalEdgeStyle;rounded=0;orthogonalLoop=1;jettySize=auto;html=1;exitX=1;exitY=0.5;exitDx=0;exitDy=0;entryX=-0.011;entryY=0.63;entryDx=0;entryDy=0;entryPerimeter=0;endArrow=none;endFill=0;" edge="1" parent="1" source="iCEelQpR8W68b0SyWvai-43" target="iCEelQpR8W68b0SyWvai-45">
          <mxGeometry relative="1" as="geometry" />
        </mxCell>
        <mxCell id="C2vpB9DQUcM9V20TogkW-9" value="Bezero_ID" style="text;html=1;strokeColor=none;fillColor=none;align=center;verticalAlign=middle;whiteSpace=wrap;rounded=0;fontSize=16;" vertex="1" parent="1">
          <mxGeometry x="-21" y="718" width="60" height="30" as="geometry" />
        </mxCell>
        <mxCell id="C2vpB9DQUcM9V20TogkW-10" style="edgeStyle=orthogonalEdgeStyle;rounded=0;orthogonalLoop=1;jettySize=auto;html=1;exitX=0;exitY=0.5;exitDx=0;exitDy=0;endArrow=oval;endFill=1;entryX=0.983;entryY=0.586;entryDx=0;entryDy=0;entryPerimeter=0;" edge="1" parent="1">
          <mxGeometry relative="1" as="geometry">
            <mxPoint x="51.98000000000002" y="733.5800000000004" as="targetPoint" />
            <mxPoint x="90" y="733" as="sourcePoint" />
          </mxGeometry>
        </mxCell>
        <mxCell id="C2vpB9DQUcM9V20TogkW-13" style="edgeStyle=orthogonalEdgeStyle;rounded=1;orthogonalLoop=1;jettySize=auto;html=1;exitX=0.002;exitY=0.809;exitDx=0;exitDy=0;endArrow=oval;endFill=0;exitPerimeter=0;entryX=1;entryY=0.5;entryDx=0;entryDy=0;strokeColor=default;curved=0;" edge="1" parent="1">
          <mxGeometry relative="1" as="geometry">
            <mxPoint x="52" y="757" as="targetPoint" />
            <mxPoint x="89.34000000000015" y="756.7199999999998" as="sourcePoint" />
            <Array as="points">
              <mxPoint x="87" y="757" />
              <mxPoint x="52" y="756" />
            </Array>
          </mxGeometry>
        </mxCell>
        <mxCell id="C2vpB9DQUcM9V20TogkW-14" value="NAN" style="text;html=1;strokeColor=none;fillColor=none;align=center;verticalAlign=middle;whiteSpace=wrap;rounded=0;fontSize=16;" vertex="1" parent="1">
          <mxGeometry x="-7" y="741" width="60" height="30" as="geometry" />
        </mxCell>
        <mxCell id="ZefZ5wgN9eoWKqnJJMVi-24" value="Filma-id" style="text;html=1;align=center;verticalAlign=middle;resizable=0;points=[];autosize=1;strokeColor=none;fillColor=none;rotation=-90;" vertex="1" parent="1">
          <mxGeometry x="920" y="314" width="70" height="30" as="geometry" />
        </mxCell>
        <mxCell id="ZefZ5wgN9eoWKqnJJMVi-25" value="Izena" style="text;html=1;align=center;verticalAlign=middle;resizable=0;points=[];autosize=1;strokeColor=none;fillColor=none;rotation=-90;" vertex="1" parent="1">
          <mxGeometry x="1010" y="314" width="50" height="30" as="geometry" />
        </mxCell>
        <mxCell id="ZefZ5wgN9eoWKqnJJMVi-26" value="Iraupena" style="text;html=1;align=center;verticalAlign=middle;resizable=0;points=[];autosize=1;strokeColor=none;fillColor=none;rotation=-90;" vertex="1" parent="1">
          <mxGeometry x="1035" y="308" width="70" height="30" as="geometry" />
        </mxCell>
        <mxCell id="ZefZ5wgN9eoWKqnJJMVi-27" value="Generoa" style="text;html=1;align=center;verticalAlign=middle;resizable=0;points=[];autosize=1;strokeColor=none;fillColor=none;rotation=-90;" vertex="1" parent="1">
          <mxGeometry x="885" y="308" width="70" height="30" as="geometry" />
        </mxCell>
        <mxCell id="C2vpB9DQUcM9V20TogkW-19" style="edgeStyle=orthogonalEdgeStyle;rounded=0;orthogonalLoop=1;jettySize=auto;html=1;exitX=-0.006;exitY=0.214;exitDx=0;exitDy=0;endArrow=oval;endFill=0;exitPerimeter=0;" edge="1" parent="1">
          <mxGeometry relative="1" as="geometry">
            <mxPoint x="51" y="713" as="targetPoint" />
            <mxPoint x="89.98000000000002" y="713.1199999999999" as="sourcePoint" />
          </mxGeometry>
        </mxCell>
        <mxCell id="C2vpB9DQUcM9V20TogkW-20" value="Izena" style="text;html=1;strokeColor=none;fillColor=none;align=center;verticalAlign=middle;whiteSpace=wrap;rounded=0;fontSize=16;" vertex="1" parent="1">
          <mxGeometry x="-7" y="697" width="60" height="30" as="geometry" />
        </mxCell>
        <mxCell id="C2vpB9DQUcM9V20TogkW-21" style="edgeStyle=orthogonalEdgeStyle;rounded=0;orthogonalLoop=1;jettySize=auto;html=1;exitX=-0.006;exitY=0.214;exitDx=0;exitDy=0;endArrow=oval;endFill=0;exitPerimeter=0;" edge="1" parent="1">
          <mxGeometry relative="1" as="geometry">
            <mxPoint x="51" y="696" as="targetPoint" />
            <mxPoint x="89.98000000000002" y="696.1199999999999" as="sourcePoint" />
          </mxGeometry>
        </mxCell>
        <mxCell id="C2vpB9DQUcM9V20TogkW-22" value="Abizena" style="text;html=1;strokeColor=none;fillColor=none;align=center;verticalAlign=middle;whiteSpace=wrap;rounded=0;fontSize=16;" vertex="1" parent="1">
          <mxGeometry x="-13" y="679" width="60" height="30" as="geometry" />
        </mxCell>
        <mxCell id="C2vpB9DQUcM9V20TogkW-23" style="edgeStyle=orthogonalEdgeStyle;rounded=0;orthogonalLoop=1;jettySize=auto;html=1;exitX=0.169;exitY=0.982;exitDx=0;exitDy=0;endArrow=oval;endFill=0;exitPerimeter=0;" edge="1" parent="1" source="ZefZ5wgN9eoWKqnJJMVi-4">
          <mxGeometry relative="1" as="geometry">
            <mxPoint x="120" y="800" as="targetPoint" />
            <mxPoint x="99.98000000000002" y="706.1199999999999" as="sourcePoint" />
            <Array as="points">
              <mxPoint x="119" y="790" />
              <mxPoint x="119" y="790" />
              <mxPoint x="119" y="800" />
            </Array>
          </mxGeometry>
        </mxCell>
        <mxCell id="C2vpB9DQUcM9V20TogkW-24" value="Sexua" style="text;html=1;strokeColor=none;fillColor=none;align=center;verticalAlign=middle;whiteSpace=wrap;rounded=0;fontSize=16;rotation=-90;" vertex="1" parent="1">
          <mxGeometry x="87" y="813" width="60" height="30" as="geometry" />
        </mxCell>
        <mxCell id="C2vpB9DQUcM9V20TogkW-25" style="edgeStyle=orthogonalEdgeStyle;rounded=0;orthogonalLoop=1;jettySize=auto;html=1;exitX=0.169;exitY=0.982;exitDx=0;exitDy=0;endArrow=oval;endFill=0;exitPerimeter=0;" edge="1" parent="1">
          <mxGeometry relative="1" as="geometry">
            <mxPoint x="149" y="800" as="targetPoint" />
            <mxPoint x="148" y="766" as="sourcePoint" />
            <Array as="points">
              <mxPoint x="148" y="790" />
              <mxPoint x="148" y="790" />
              <mxPoint x="148" y="800" />
            </Array>
          </mxGeometry>
        </mxCell>
        <mxCell id="C2vpB9DQUcM9V20TogkW-26" value="Email" style="text;html=1;strokeColor=none;fillColor=none;align=center;verticalAlign=middle;whiteSpace=wrap;rounded=0;fontSize=16;rotation=-90;" vertex="1" parent="1">
          <mxGeometry x="117" y="813" width="60" height="30" as="geometry" />
        </mxCell>
        <mxCell id="C2vpB9DQUcM9V20TogkW-28" value="Telefonoak" style="text;html=1;strokeColor=none;fillColor=none;align=center;verticalAlign=middle;whiteSpace=wrap;rounded=0;fontSize=16;rotation=-90;" vertex="1" parent="1">
          <mxGeometry x="145" y="831" width="60" height="30" as="geometry" />
        </mxCell>
        <mxCell id="C2vpB9DQUcM9V20TogkW-29" value="" style="ellipse;whiteSpace=wrap;html=1;aspect=fixed;fontSize=16;" vertex="1" parent="1">
          <mxGeometry x="171" y="795" width="10" height="10" as="geometry" />
        </mxCell>
        <mxCell id="C2vpB9DQUcM9V20TogkW-33" value="" style="endArrow=none;html=1;rounded=0;fontSize=12;startSize=8;endSize=8;curved=1;" edge="1" parent="1">
          <mxGeometry width="50" height="50" relative="1" as="geometry">
            <mxPoint x="176" y="796" as="sourcePoint" />
            <mxPoint x="176" y="766" as="targetPoint" />
            <Array as="points">
              <mxPoint x="176" y="786" />
            </Array>
          </mxGeometry>
        </mxCell>
        <mxCell id="C2vpB9DQUcM9V20TogkW-34" value="" style="ellipse;whiteSpace=wrap;html=1;aspect=fixed;fontSize=16;strokeWidth=1;" vertex="1" parent="1">
          <mxGeometry x="173.5" y="797.5" width="5" height="5" as="geometry" />
        </mxCell>
        <mxCell id="C2vpB9DQUcM9V20TogkW-36" value="proiektatu" style="rhombus;whiteSpace=wrap;html=1;" vertex="1" parent="1">
          <mxGeometry x="397" y="-120" width="80" height="80" as="geometry" />
        </mxCell>
        <mxCell id="ZefZ5wgN9eoWKqnJJMVi-30" style="edgeStyle=orthogonalEdgeStyle;rounded=0;orthogonalLoop=1;jettySize=auto;html=1;exitX=0;exitY=0.5;exitDx=0;exitDy=0;endArrow=none;endFill=0;entryX=0.5;entryY=1;entryDx=0;entryDy=0;" edge="1" parent="1" source="ZefZ5wgN9eoWKqnJJMVi-29" target="iCEelQpR8W68b0SyWvai-3">
          <mxGeometry relative="1" as="geometry">
            <mxPoint x="-109.99999999999977" y="470" as="targetPoint" />
          </mxGeometry>
        </mxCell>
        <mxCell id="ZefZ5wgN9eoWKqnJJMVi-29" value="eduki" style="rhombus;whiteSpace=wrap;html=1;" vertex="1" parent="1">
          <mxGeometry x="290" y="969.9966666666666" width="80" height="80" as="geometry" />
        </mxCell>
        <mxCell id="C2vpB9DQUcM9V20TogkW-39" style="edgeStyle=orthogonalEdgeStyle;rounded=0;orthogonalLoop=1;jettySize=auto;html=1;endArrow=oval;endFill=0;" edge="1" parent="1">
          <mxGeometry relative="1" as="geometry">
            <mxPoint x="1040" y="500" as="targetPoint" />
            <mxPoint x="1040" y="460" as="sourcePoint" />
          </mxGeometry>
        </mxCell>
        <mxCell id="C2vpB9DQUcM9V20TogkW-40" value="Prezioa" style="text;html=1;align=center;verticalAlign=middle;resizable=0;points=[];autosize=1;strokeColor=none;fillColor=none;rotation=-90;" vertex="1" parent="1">
          <mxGeometry x="1009" y="514" width="60" height="30" as="geometry" />
        </mxCell>
        <mxCell id="ZefZ5wgN9eoWKqnJJMVi-32" style="edgeStyle=orthogonalEdgeStyle;rounded=0;orthogonalLoop=1;jettySize=auto;html=1;exitX=-0.006;exitY=0.214;exitDx=0;exitDy=0;endArrow=oval;endFill=0;exitPerimeter=0;" edge="1" parent="1">
          <mxGeometry relative="1" as="geometry">
            <mxPoint x="205.02" y="795" as="targetPoint" />
            <mxPoint x="205.00000000000003" y="766.1199999999999" as="sourcePoint" />
            <Array as="points">
              <mxPoint x="205.02" y="775" />
              <mxPoint x="205.02" y="775" />
            </Array>
          </mxGeometry>
        </mxCell>
        <mxCell id="ZefZ5wgN9eoWKqnJJMVi-33" value="Jaio data" style="text;html=1;align=center;verticalAlign=middle;resizable=0;points=[];autosize=1;strokeColor=none;fillColor=none;rotation=-90;" vertex="1" parent="1">
          <mxGeometry x="170" y="820" width="70" height="30" as="geometry" />
        </mxCell>
        <mxCell id="ZefZ5wgN9eoWKqnJJMVi-38" value="&lt;br&gt;saio_id" style="text;html=1;align=center;verticalAlign=middle;resizable=0;points=[];autosize=1;strokeColor=none;fillColor=none;rotation=-90;" vertex="1" parent="1">
          <mxGeometry x="620" y="514" width="60" height="40" as="geometry" />
        </mxCell>
        <mxCell id="ZefZ5wgN9eoWKqnJJMVi-39" value="data" style="text;html=1;align=center;verticalAlign=middle;resizable=0;points=[];autosize=1;strokeColor=none;fillColor=none;rotation=-90;" vertex="1" parent="1">
          <mxGeometry x="665" y="514" width="50" height="30" as="geometry" />
        </mxCell>
        <mxCell id="ZefZ5wgN9eoWKqnJJMVi-40" value="Ordutegia" style="text;html=1;align=center;verticalAlign=middle;resizable=0;points=[];autosize=1;strokeColor=none;fillColor=none;rotation=-90;" vertex="1" parent="1">
          <mxGeometry x="680" y="514" width="80" height="30" as="geometry" />
        </mxCell>
        <mxCell id="ZefZ5wgN9eoWKqnJJMVi-41" value="1:N" style="text;html=1;align=center;verticalAlign=middle;resizable=0;points=[];autosize=1;strokeColor=none;fillColor=none;fontSize=19;" vertex="1" parent="1">
          <mxGeometry x="-185" y="140" width="50" height="40" as="geometry" />
        </mxCell>
        <mxCell id="C2vpB9DQUcM9V20TogkW-43" value="" style="endArrow=classic;html=1;rounded=0;fontSize=12;startSize=8;endSize=8;curved=1;" edge="1" parent="1">
          <mxGeometry width="50" height="50" relative="1" as="geometry">
            <mxPoint x="349" y="592" as="sourcePoint" />
            <mxPoint x="349" y="469" as="targetPoint" />
          </mxGeometry>
        </mxCell>
        <mxCell id="C2vpB9DQUcM9V20TogkW-44" value="1:N" style="text;html=1;strokeColor=none;fillColor=none;align=center;verticalAlign=middle;whiteSpace=wrap;rounded=0;fontSize=19;" vertex="1" parent="1">
          <mxGeometry x="79" y="577" width="60" height="30" as="geometry" />
        </mxCell>
        <mxCell id="ZefZ5wgN9eoWKqnJJMVi-42" value="(1,N)" style="text;html=1;align=center;verticalAlign=middle;resizable=0;points=[];autosize=1;strokeColor=none;fillColor=none;rotation=-90;fontSize=13;" vertex="1" parent="1">
          <mxGeometry x="-127" y="364" width="50" height="30" as="geometry" />
        </mxCell>
        <mxCell id="C2vpB9DQUcM9V20TogkW-46" value="(0,n)" style="text;html=1;strokeColor=none;fillColor=none;align=center;verticalAlign=middle;whiteSpace=wrap;rounded=0;fontSize=16;" vertex="1" parent="1">
          <mxGeometry x="293" y="470" width="60" height="30" as="geometry" />
        </mxCell>
        <mxCell id="C2vpB9DQUcM9V20TogkW-45" value="(0,1)" style="text;html=1;strokeColor=none;fillColor=none;align=center;verticalAlign=middle;whiteSpace=wrap;rounded=0;fontSize=16;" vertex="1" parent="1">
          <mxGeometry x="162" y="654" width="60" height="30" as="geometry" />
        </mxCell>
        <mxCell id="ZefZ5wgN9eoWKqnJJMVi-43" value="(1,1)" style="text;html=1;align=center;verticalAlign=middle;resizable=0;points=[];autosize=1;strokeColor=none;fillColor=none;" vertex="1" parent="1">
          <mxGeometry x="285" y="128" width="50" height="30" as="geometry" />
        </mxCell>
        <mxCell id="C2vpB9DQUcM9V20TogkW-47" value="1:N" style="text;html=1;strokeColor=none;fillColor=none;align=center;verticalAlign=middle;whiteSpace=wrap;rounded=0;fontSize=16;" vertex="1" parent="1">
          <mxGeometry x="730" y="364" width="60" height="30" as="geometry" />
        </mxCell>
        <mxCell id="C2vpB9DQUcM9V20TogkW-48" value="(1,n)" style="text;html=1;strokeColor=none;fillColor=none;align=center;verticalAlign=middle;whiteSpace=wrap;rounded=0;fontSize=13;" vertex="1" parent="1">
          <mxGeometry x="500" y="404" width="60" height="30" as="geometry" />
        </mxCell>
        <mxCell id="ZefZ5wgN9eoWKqnJJMVi-44" value="(1,N)" style="text;html=1;align=center;verticalAlign=middle;resizable=0;points=[];autosize=1;strokeColor=none;fillColor=none;fontSize=13;" vertex="1" parent="1">
          <mxGeometry x="535" y="128" width="50" height="30" as="geometry" />
        </mxCell>
        <mxCell id="C2vpB9DQUcM9V20TogkW-53" value="1:1" style="text;html=1;strokeColor=none;fillColor=none;align=center;verticalAlign=middle;whiteSpace=wrap;rounded=0;fontSize=16;" vertex="1" parent="1">
          <mxGeometry x="140" y="374" width="60" height="30" as="geometry" />
        </mxCell>
        <mxCell id="ZefZ5wgN9eoWKqnJJMVi-46" value="N:M" style="text;html=1;align=center;verticalAlign=middle;resizable=0;points=[];autosize=1;strokeColor=none;fillColor=none;fontSize=19;" vertex="1" parent="1">
          <mxGeometry x="1028" y="140" width="60" height="40" as="geometry" />
        </mxCell>
        <mxCell id="C2vpB9DQUcM9V20TogkW-54" value="(0,1)" style="text;html=1;strokeColor=none;fillColor=none;align=center;verticalAlign=middle;whiteSpace=wrap;rounded=0;fontSize=16;" vertex="1" parent="1">
          <mxGeometry x="285" y="411" width="60" height="30" as="geometry" />
        </mxCell>
        <mxCell id="C2vpB9DQUcM9V20TogkW-49" value="(1,1)" style="text;html=1;strokeColor=none;fillColor=none;align=center;verticalAlign=middle;whiteSpace=wrap;rounded=0;fontSize=13;" vertex="1" parent="1">
          <mxGeometry x="860" y="404" width="60" height="30" as="geometry" />
        </mxCell>
        <mxCell id="C2vpB9DQUcM9V20TogkW-55" value="(1,1)" style="text;html=1;strokeColor=none;fillColor=none;align=center;verticalAlign=middle;whiteSpace=wrap;rounded=0;fontSize=16;" vertex="1" parent="1">
          <mxGeometry x="-13" y="409" width="60" height="30" as="geometry" />
        </mxCell>
        <mxCell id="ZefZ5wgN9eoWKqnJJMVi-47" value="&lt;span style=&quot;font-size: 13px;&quot;&gt;(1,N)&lt;/span&gt;" style="text;html=1;align=center;verticalAlign=middle;resizable=0;points=[];autosize=1;strokeColor=none;fillColor=none;rotation=-90;" vertex="1" parent="1">
          <mxGeometry x="959" y="339" width="50" height="30" as="geometry" />
        </mxCell>
        <mxCell id="C2vpB9DQUcM9V20TogkW-56" value="(1,n)" style="text;html=1;strokeColor=none;fillColor=none;align=center;verticalAlign=middle;whiteSpace=wrap;rounded=0;fontSize=16;" vertex="1" parent="1">
          <mxGeometry x="640" y="657" width="60" height="30" as="geometry" />
        </mxCell>
        <mxCell id="C2vpB9DQUcM9V20TogkW-57" value="N:M" style="text;html=1;strokeColor=none;fillColor=none;align=center;verticalAlign=middle;whiteSpace=wrap;rounded=0;fontSize=16;" vertex="1" parent="1">
          <mxGeometry x="300" y="940" width="60" height="30" as="geometry" />
        </mxCell>
        <mxCell id="C2vpB9DQUcM9V20TogkW-58" value="(0,n)" style="text;html=1;strokeColor=none;fillColor=none;align=center;verticalAlign=middle;whiteSpace=wrap;rounded=0;fontSize=16;" vertex="1" parent="1">
          <mxGeometry x="-107" y="469" width="60" height="30" as="geometry" />
        </mxCell>
        <mxCell id="C2vpB9DQUcM9V20TogkW-59" value="1:N" style="text;html=1;strokeColor=none;fillColor=none;align=center;verticalAlign=middle;whiteSpace=wrap;rounded=0;fontSize=19;" vertex="1" parent="1">
          <mxGeometry x="407" y="-150" width="60" height="30" as="geometry" />
        </mxCell>
        <mxCell id="C2vpB9DQUcM9V20TogkW-60" value="(0,N)" style="text;html=1;strokeColor=none;fillColor=none;align=center;verticalAlign=middle;whiteSpace=wrap;rounded=0;fontSize=13;" vertex="1" parent="1">
          <mxGeometry x="1062" y="401" width="60" height="30" as="geometry" />
        </mxCell>
        <mxCell id="C2vpB9DQUcM9V20TogkW-61" value="(1,1)" style="text;html=1;strokeColor=none;fillColor=none;align=center;verticalAlign=middle;whiteSpace=wrap;rounded=0;fontSize=16;" vertex="1" parent="1">
          <mxGeometry x="-247" y="409" width="60" height="30" as="geometry" />
        </mxCell>
        <mxCell id="ZefZ5wgN9eoWKqnJJMVi-48" value="(1,N)" style="text;html=1;align=center;verticalAlign=middle;resizable=0;points=[];autosize=1;strokeColor=none;fillColor=none;fontSize=13;" vertex="1" parent="1">
          <mxGeometry x="750" y="595" width="50" height="30" as="geometry" />
        </mxCell>
        <mxCell id="ZefZ5wgN9eoWKqnJJMVi-49" value="(1,N)" style="text;html=1;align=center;verticalAlign=middle;resizable=0;points=[];autosize=1;strokeColor=none;fillColor=none;rotation=-90;fontSize=13;" vertex="1" parent="1">
          <mxGeometry x="950" y="470" width="50" height="30" as="geometry" />
        </mxCell>
        <mxCell id="ZefZ5wgN9eoWKqnJJMVi-50" value="N:M" style="text;html=1;align=center;verticalAlign=middle;resizable=0;points=[];autosize=1;strokeColor=none;fillColor=none;fontSize=19;" vertex="1" parent="1">
          <mxGeometry x="1033" y="602" width="60" height="40" as="geometry" />
        </mxCell>
        <mxCell id="C2vpB9DQUcM9V20TogkW-62" value="(1,n)" style="text;html=1;strokeColor=none;fillColor=none;align=center;verticalAlign=middle;whiteSpace=wrap;rounded=0;fontSize=16;rotation=-90;" vertex="1" parent="1">
          <mxGeometry x="388" y="367" width="60" height="30" as="geometry" />
        </mxCell>
        <mxCell id="C2vpB9DQUcM9V20TogkW-63" value="(1,1)" style="text;html=1;strokeColor=none;fillColor=none;align=center;verticalAlign=middle;whiteSpace=wrap;rounded=0;fontSize=16;rotation=-90;" vertex="1" parent="1">
          <mxGeometry x="388" y="185" width="60" height="30" as="geometry" />
        </mxCell>
        <mxCell id="C2vpB9DQUcM9V20TogkW-64" value="1:N" style="text;html=1;strokeColor=none;fillColor=none;align=center;verticalAlign=middle;whiteSpace=wrap;rounded=0;fontSize=16;rotation=0;" vertex="1" parent="1">
          <mxGeometry x="470" y="250" width="60" height="30" as="geometry" />
        </mxCell>
        <mxCell id="ZefZ5wgN9eoWKqnJJMVi-52" value="&lt;br&gt;(0,N)" style="text;html=1;align=center;verticalAlign=middle;resizable=0;points=[];autosize=1;strokeColor=none;fillColor=none;rotation=0;" vertex="1" parent="1">
          <mxGeometry x="435" y="465" width="50" height="40" as="geometry" />
        </mxCell>
        <mxCell id="ZefZ5wgN9eoWKqnJJMVi-53" value="(1,1)" style="text;html=1;align=center;verticalAlign=middle;resizable=0;points=[];autosize=1;strokeColor=none;fillColor=none;" vertex="1" parent="1">
          <mxGeometry x="585" y="595" width="50" height="30" as="geometry" />
        </mxCell>
        <mxCell id="ZefZ5wgN9eoWKqnJJMVi-54" value="1:N" style="text;html=1;align=center;verticalAlign=middle;resizable=0;points=[];autosize=1;strokeColor=none;fillColor=none;fontSize=19;" vertex="1" parent="1">
          <mxGeometry x="414" y="649" width="50" height="40" as="geometry" />
        </mxCell>
      </root>
    </mxGraphModel>
  </diagram>
</mxfile>
